<mxfile host="Electron" modified="2023-09-08T15:02:00.987Z" agent="Mozilla/5.0 (Windows NT 10.0; Win64; x64) AppleWebKit/537.36 (KHTML, like Gecko) draw.io/21.6.8 Chrome/114.0.5735.289 Electron/25.5.0 Safari/537.36" etag="45Qcfzx3uZVqK0C6eIHD" version="21.6.8" type="device">
  <diagram name="Page-1" id="gJeSmoTHLmn67STXLX72">
    <mxGraphModel dx="983" dy="576" grid="1" gridSize="10" guides="1" tooltips="1" connect="1" arrows="1" fold="1" page="1" pageScale="1" pageWidth="1600" pageHeight="900" math="0" shadow="0">
      <root>
        <mxCell id="0" />
        <mxCell id="1" parent="0" />
        <mxCell id="7aSSVWcKoK6iyC9zZFxs-16" style="rounded=0;orthogonalLoop=1;jettySize=auto;html=1;exitX=0;exitY=0;exitDx=0;exitDy=0;entryX=0.75;entryY=1;entryDx=0;entryDy=0;" parent="1" source="7aSSVWcKoK6iyC9zZFxs-1" target="7aSSVWcKoK6iyC9zZFxs-2" edge="1">
          <mxGeometry relative="1" as="geometry" />
        </mxCell>
        <mxCell id="7aSSVWcKoK6iyC9zZFxs-18" style="rounded=0;orthogonalLoop=1;jettySize=auto;html=1;exitX=0.3;exitY=0.05;exitDx=0;exitDy=0;entryX=1;entryY=1;entryDx=0;entryDy=0;exitPerimeter=0;" parent="1" source="7aSSVWcKoK6iyC9zZFxs-1" target="7aSSVWcKoK6iyC9zZFxs-2" edge="1">
          <mxGeometry relative="1" as="geometry" />
        </mxCell>
        <mxCell id="7aSSVWcKoK6iyC9zZFxs-1" value="Salon Booking System" style="ellipse;whiteSpace=wrap;html=1;aspect=fixed;" parent="1" vertex="1">
          <mxGeometry x="700" y="350" width="200" height="200" as="geometry" />
        </mxCell>
        <mxCell id="7aSSVWcKoK6iyC9zZFxs-9" style="rounded=0;orthogonalLoop=1;jettySize=auto;html=1;exitX=0.25;exitY=1;exitDx=0;exitDy=0;" parent="1" source="7aSSVWcKoK6iyC9zZFxs-2" edge="1">
          <mxGeometry relative="1" as="geometry">
            <mxPoint x="700" y="440" as="targetPoint" />
          </mxGeometry>
        </mxCell>
        <mxCell id="7aSSVWcKoK6iyC9zZFxs-2" value="Customer" style="rounded=0;whiteSpace=wrap;html=1;" parent="1" vertex="1">
          <mxGeometry x="220" y="160" width="250" height="120" as="geometry" />
        </mxCell>
        <mxCell id="7aSSVWcKoK6iyC9zZFxs-12" style="rounded=0;orthogonalLoop=1;jettySize=auto;html=1;exitX=0;exitY=0.75;exitDx=0;exitDy=0;entryX=1;entryY=0;entryDx=0;entryDy=0;startArrow=classic;startFill=1;endArrow=none;endFill=0;" parent="1" source="7aSSVWcKoK6iyC9zZFxs-6" target="7aSSVWcKoK6iyC9zZFxs-1" edge="1">
          <mxGeometry relative="1" as="geometry" />
        </mxCell>
        <mxCell id="DS25fw3E4sEYyNA3o-YZ-7" style="rounded=0;orthogonalLoop=1;jettySize=auto;html=1;exitX=0;exitY=0.5;exitDx=0;exitDy=0;entryX=0.752;entryY=0.052;entryDx=0;entryDy=0;entryPerimeter=0;startArrow=none;startFill=0;endArrow=classic;endFill=1;" edge="1" parent="1" source="7aSSVWcKoK6iyC9zZFxs-6" target="7aSSVWcKoK6iyC9zZFxs-1">
          <mxGeometry relative="1" as="geometry" />
        </mxCell>
        <mxCell id="7aSSVWcKoK6iyC9zZFxs-6" value="Employee" style="rounded=0;whiteSpace=wrap;html=1;" parent="1" vertex="1">
          <mxGeometry x="1060" y="160" width="250" height="120" as="geometry" />
        </mxCell>
        <mxCell id="7aSSVWcKoK6iyC9zZFxs-11" style="rounded=0;orthogonalLoop=1;jettySize=auto;html=1;exitX=0;exitY=0.25;exitDx=0;exitDy=0;entryX=1;entryY=1;entryDx=0;entryDy=0;startArrow=classic;startFill=1;" parent="1" source="7aSSVWcKoK6iyC9zZFxs-7" target="7aSSVWcKoK6iyC9zZFxs-1" edge="1">
          <mxGeometry relative="1" as="geometry" />
        </mxCell>
        <mxCell id="7aSSVWcKoK6iyC9zZFxs-7" value="Database" style="rounded=0;whiteSpace=wrap;html=1;" parent="1" vertex="1">
          <mxGeometry x="1060" y="600" width="250" height="120" as="geometry" />
        </mxCell>
        <mxCell id="7aSSVWcKoK6iyC9zZFxs-10" style="rounded=0;orthogonalLoop=1;jettySize=auto;html=1;exitX=1;exitY=0.25;exitDx=0;exitDy=0;entryX=0.274;entryY=0.969;entryDx=0;entryDy=0;entryPerimeter=0;" parent="1" source="7aSSVWcKoK6iyC9zZFxs-8" target="7aSSVWcKoK6iyC9zZFxs-1" edge="1">
          <mxGeometry relative="1" as="geometry" />
        </mxCell>
        <mxCell id="7aSSVWcKoK6iyC9zZFxs-8" value="Supplier" style="rounded=0;whiteSpace=wrap;html=1;" parent="1" vertex="1">
          <mxGeometry x="365" y="600" width="250" height="120" as="geometry" />
        </mxCell>
        <mxCell id="7aSSVWcKoK6iyC9zZFxs-13" value="&lt;p&gt;Booking Request&lt;/p&gt;" style="text;html=1;align=center;verticalAlign=middle;resizable=0;points=[];autosize=1;strokeColor=none;fillColor=none;rotation=21;" parent="1" vertex="1">
          <mxGeometry x="505" y="354" width="110" height="50" as="geometry" />
        </mxCell>
        <mxCell id="7aSSVWcKoK6iyC9zZFxs-15" value="&lt;p&gt;Avaible Slots&lt;/p&gt;" style="text;html=1;align=center;verticalAlign=middle;resizable=0;points=[];autosize=1;strokeColor=none;fillColor=none;rotation=15;" parent="1" vertex="1">
          <mxGeometry x="560" y="310" width="90" height="50" as="geometry" />
        </mxCell>
        <mxCell id="7aSSVWcKoK6iyC9zZFxs-19" value="&lt;p&gt;Confirmation/Rejection&lt;/p&gt;" style="text;html=1;align=center;verticalAlign=middle;resizable=0;points=[];autosize=1;strokeColor=none;fillColor=none;rotation=15;" parent="1" vertex="1">
          <mxGeometry x="535" y="284" width="140" height="50" as="geometry" />
        </mxCell>
        <mxCell id="7aSSVWcKoK6iyC9zZFxs-20" value="&lt;p&gt;Send Daily Appointments&lt;/p&gt;" style="text;html=1;align=center;verticalAlign=middle;resizable=0;points=[];autosize=1;strokeColor=none;fillColor=none;rotation=-35;" parent="1" vertex="1">
          <mxGeometry x="870" y="290" width="160" height="50" as="geometry" />
        </mxCell>
        <mxCell id="7aSSVWcKoK6iyC9zZFxs-22" value="&lt;div style=&quot;text-align: left;&quot;&gt;Send &amp;amp; Store Appointment Data&lt;/div&gt;" style="text;html=1;align=center;verticalAlign=middle;resizable=0;points=[];autosize=1;strokeColor=none;fillColor=none;rotation=30;" parent="1" vertex="1">
          <mxGeometry x="875" y="550" width="190" height="30" as="geometry" />
        </mxCell>
        <mxCell id="DS25fw3E4sEYyNA3o-YZ-1" style="rounded=0;orthogonalLoop=1;jettySize=auto;html=1;exitX=-0.01;exitY=0.499;exitDx=0;exitDy=0;entryX=1;entryY=1;entryDx=0;entryDy=0;startArrow=classic;startFill=1;exitPerimeter=0;endArrow=none;endFill=0;" edge="1" parent="1" source="7aSSVWcKoK6iyC9zZFxs-7">
          <mxGeometry relative="1" as="geometry">
            <mxPoint x="1039" y="646.5" as="sourcePoint" />
            <mxPoint x="850" y="537.5" as="targetPoint" />
          </mxGeometry>
        </mxCell>
        <mxCell id="DS25fw3E4sEYyNA3o-YZ-2" value="&lt;div style=&quot;text-align: left;&quot;&gt;Store User Data&lt;/div&gt;" style="text;html=1;align=center;verticalAlign=middle;resizable=0;points=[];autosize=1;strokeColor=none;fillColor=none;rotation=30;" vertex="1" parent="1">
          <mxGeometry x="895" y="570" width="110" height="30" as="geometry" />
        </mxCell>
        <mxCell id="DS25fw3E4sEYyNA3o-YZ-3" value="&lt;div style=&quot;text-align: left;&quot;&gt;Store Service Data&lt;/div&gt;" style="text;html=1;align=center;verticalAlign=middle;resizable=0;points=[];autosize=1;strokeColor=none;fillColor=none;rotation=30;" vertex="1" parent="1">
          <mxGeometry x="862" y="582" width="120" height="30" as="geometry" />
        </mxCell>
        <mxCell id="DS25fw3E4sEYyNA3o-YZ-4" style="rounded=0;orthogonalLoop=1;jettySize=auto;html=1;exitX=-0.009;exitY=0.722;exitDx=0;exitDy=0;entryX=1;entryY=1;entryDx=0;entryDy=0;startArrow=classic;startFill=1;exitPerimeter=0;endArrow=none;endFill=0;" edge="1" parent="1" source="7aSSVWcKoK6iyC9zZFxs-7">
          <mxGeometry relative="1" as="geometry">
            <mxPoint x="1030" y="670" as="sourcePoint" />
            <mxPoint x="822" y="547.5" as="targetPoint" />
          </mxGeometry>
        </mxCell>
        <mxCell id="DS25fw3E4sEYyNA3o-YZ-5" value="&lt;div style=&quot;text-align: left;&quot;&gt;Store Employee Data&lt;/div&gt;" style="text;html=1;align=center;verticalAlign=middle;resizable=0;points=[];autosize=1;strokeColor=none;fillColor=none;rotation=30;" vertex="1" parent="1">
          <mxGeometry x="834" y="607" width="140" height="30" as="geometry" />
        </mxCell>
        <mxCell id="DS25fw3E4sEYyNA3o-YZ-6" style="rounded=0;orthogonalLoop=1;jettySize=auto;html=1;exitX=0;exitY=0.917;exitDx=0;exitDy=0;entryX=1;entryY=1;entryDx=0;entryDy=0;startArrow=classic;startFill=1;exitPerimeter=0;endArrow=none;endFill=0;" edge="1" parent="1" source="7aSSVWcKoK6iyC9zZFxs-7">
          <mxGeometry relative="1" as="geometry">
            <mxPoint x="1040" y="689.5" as="sourcePoint" />
            <mxPoint x="804" y="550" as="targetPoint" />
          </mxGeometry>
        </mxCell>
        <mxCell id="DS25fw3E4sEYyNA3o-YZ-8" value="&lt;p&gt;Check Daily Appointments&lt;/p&gt;" style="text;html=1;align=center;verticalAlign=middle;resizable=0;points=[];autosize=1;strokeColor=none;fillColor=none;rotation=-35;" vertex="1" parent="1">
          <mxGeometry x="870" y="250" width="160" height="50" as="geometry" />
        </mxCell>
        <mxCell id="DS25fw3E4sEYyNA3o-YZ-9" style="rounded=0;orthogonalLoop=1;jettySize=auto;html=1;entryX=0.5;entryY=1;entryDx=0;entryDy=0;" edge="1" parent="1" source="7aSSVWcKoK6iyC9zZFxs-1" target="7aSSVWcKoK6iyC9zZFxs-2">
          <mxGeometry relative="1" as="geometry">
            <mxPoint x="712.8" y="406.5" as="sourcePoint" />
            <mxPoint x="510" y="223.5" as="targetPoint" />
          </mxGeometry>
        </mxCell>
        <mxCell id="DS25fw3E4sEYyNA3o-YZ-10" value="&lt;p&gt;Send Rewards&lt;/p&gt;" style="text;html=1;align=center;verticalAlign=middle;resizable=0;points=[];autosize=1;strokeColor=none;fillColor=none;rotation=20;" vertex="1" parent="1">
          <mxGeometry x="520" y="330" width="100" height="50" as="geometry" />
        </mxCell>
        <mxCell id="DS25fw3E4sEYyNA3o-YZ-11" style="rounded=0;orthogonalLoop=1;jettySize=auto;html=1;exitX=0;exitY=1;exitDx=0;exitDy=0;entryX=0.006;entryY=0.599;entryDx=0;entryDy=0;entryPerimeter=0;" edge="1" parent="1" source="7aSSVWcKoK6iyC9zZFxs-2" target="7aSSVWcKoK6iyC9zZFxs-1">
          <mxGeometry relative="1" as="geometry">
            <mxPoint x="390" y="220" as="sourcePoint" />
            <mxPoint x="657" y="450" as="targetPoint" />
          </mxGeometry>
        </mxCell>
        <mxCell id="DS25fw3E4sEYyNA3o-YZ-12" value="&lt;p&gt;View Dashboard,Profile Data&lt;/p&gt;" style="text;html=1;align=center;verticalAlign=middle;resizable=0;points=[];autosize=1;strokeColor=none;fillColor=none;rotation=25;" vertex="1" parent="1">
          <mxGeometry x="410" y="380" width="180" height="50" as="geometry" />
        </mxCell>
      </root>
    </mxGraphModel>
  </diagram>
</mxfile>
